<?xml version="1.0" standalone="no"?>
<!DOCTYPE svg PUBLIC "-//W3C//DTD SVG 20010904//EN"
 "http://www.w3.org/TR/2001/REC-SVG-20010904/DTD/svg10.dtd">
<svg version="1.0" xmlns="http://www.w3.org/2000/svg"
 width="500.000000pt" height="500.000000pt" viewBox="0 0 500.000000 500.000000"
 preserveAspectRatio="xMidYMid meet">

<g transform="translate(0.000000,500.000000) scale(0.100000,-0.100000)"
fill="#000000" stroke="none">
<path d="M2310 4923 c-82 -8 -259 -34 -305 -45 -211 -47 -264 -63 -420 -126
-305 -123 -640 -359 -859 -607 -354 -402 -536 -817 -606 -1385 -26 -213 -1
-576 55 -807 133 -545 436 -1003 900 -1359 137 -105 320 -211 515 -298 142
-63 396 -134 580 -163 141 -22 508 -25 645 -5 444 64 787 206 1130 469 115 88
261 220 327 296 35 40 75 85 89 102 37 41 87 108 135 180 204 301 317 593 386
995 17 102 17 597 0 705 -37 225 -69 349 -145 545 -113 295 -297 573 -536 810
-123 122 -149 146 -251 221 -233 172 -434 277 -695 363 -100 33 -151 46 -300
77 -150 31 -491 48 -645 32z m522 -88 c222 -30 452 -95 625 -175 47 -22 86
-40 88 -40 2 0 42 -22 90 -50 48 -27 88 -50 90 -50 8 0 171 -113 235 -163 73
-57 304 -285 366 -362 144 -178 296 -441 364 -630 64 -180 99 -314 127 -491
24 -153 24 -555 0 -708 -45 -281 -137 -550 -267 -777 -63 -110 -153 -247 -167
-253 -6 -3 -22 3 -35 13 -37 29 -226 133 -421 231 l-128 65 4 80 c3 44 9 123
15 175 6 52 16 149 22 215 6 66 18 159 26 208 18 97 14 127 -18 157 l-22 20
41 0 c31 0 44 -5 56 -22 l16 -23 0 26 c1 29 14 43 48 53 16 5 28 0 48 -21 l26
-28 -11 28 c-14 40 -12 50 15 70 22 16 27 16 53 3 32 -17 48 -48 57 -118 6
-46 6 -47 56 -59 43 -11 57 -22 117 -93 37 -44 87 -100 110 -125 40 -42 42
-43 25 -13 -10 18 -52 84 -93 145 -68 100 -80 113 -120 127 -42 15 -45 18 -53
64 -6 36 -19 61 -47 94 -22 25 -40 52 -40 61 1 77 42 81 124 11 64 -53 67 -53
125 -9 19 15 42 19 115 20 101 1 91 9 -38 29 -75 11 -80 11 -108 -10 l-29 -21
-39 31 c-22 17 -48 42 -58 55 -11 13 -31 27 -45 31 -22 5 -27 12 -27 39 0 27
8 40 41 66 23 18 58 35 78 38 32 6 38 11 56 58 18 45 28 56 88 92 37 23 72 41
76 41 5 0 14 6 20 14 8 9 -29 0 -93 -22 l-105 -36 -19 -47 c-17 -39 -25 -48
-54 -54 -18 -4 -43 -14 -56 -22 -31 -19 -66 -13 -70 12 -1 11 11 35 29 55 18
19 48 53 68 74 41 44 35 42 -68 -27 -70 -47 -75 -49 -88 -31 -7 10 -10 27 -7
38 6 20 6 20 -13 4 -25 -23 -29 -23 -36 4 -7 24 4 49 45 98 22 27 28 45 28 81
0 59 15 72 73 64 l44 -7 27 69 c15 37 43 93 61 123 39 66 61 109 48 95 -90
-96 -153 -186 -153 -220 0 -17 -18 -19 -54 -5 -22 8 -31 5 -58 -19 -29 -25
-31 -33 -29 -79 2 -49 0 -52 -60 -116 -34 -36 -65 -66 -70 -66 -13 0 -11 95 3
125 9 19 9 37 0 76 -11 46 -10 54 8 79 16 23 18 33 10 55 -16 41 -12 63 26
165 l35 95 -41 35 -41 35 -15 260 c-16 295 -21 336 -23 215 -1 -47 -6 -125
-11 -175 -5 -49 -10 -145 -11 -213 l-2 -123 37 -38 37 -38 -16 -49 c-9 -27
-23 -64 -32 -83 -13 -28 -13 -40 -3 -71 11 -33 10 -41 -4 -61 -11 -16 -16 -45
-16 -88 0 -36 -4 -78 -9 -95 -5 -17 -15 -50 -21 -73 -16 -62 -35 -56 -51 16
-21 94 -28 108 -22 41 3 -36 5 -67 5 -70 0 -66 -12 -75 -50 -40 -29 27 -32 26
-32 -16 0 -32 -2 -35 -22 -29 -13 4 -41 24 -62 44 l-39 36 31 -55 c41 -74 36
-103 -19 -98 -38 3 -38 3 -20 -17 10 -11 16 -27 12 -35 -14 -35 -43 -68 -64
-75 -20 -6 -19 -7 12 -19 70 -25 58 -91 -21 -119 l-43 -15 58 -1 c57 -1 57 -1
57 -31 0 -26 -8 -36 -50 -62 -27 -17 -50 -32 -50 -33 0 -2 21 0 47 3 l47 5
-40 -49 c-36 -43 -114 -152 -139 -194 -5 -8 44 36 110 98 82 77 126 112 142
112 30 0 39 -23 24 -58 -12 -26 -12 -26 21 6 61 58 101 31 54 -37 -37 -52 -61
-122 -76 -211 -6 -41 -22 -131 -35 -200 -13 -69 -26 -160 -30 -202 -4 -43 -11
-80 -15 -83 -14 -9 -87 34 -119 70 -30 35 -31 57 -3 140 40 116 60 200 51 211
-5 6 -22 14 -37 18 -109 24 -169 35 -249 47 l-93 13 0 30 c0 69 21 202 42 272
21 70 24 75 65 95 44 21 93 84 172 216 63 108 64 235 0 315 -33 42 -38 88 -15
143 14 33 18 35 64 35 26 0 72 -7 101 -16 29 -8 55 -13 57 -11 6 6 -59 92
-109 144 -35 37 -38 43 -23 49 25 10 214 -3 253 -16 18 -7 38 -10 45 -7 20 7
-111 127 -185 171 -37 21 -67 40 -67 41 0 2 30 20 68 41 37 20 101 62 142 93
l75 56 -65 7 c-63 6 -116 21 -195 54 l-38 15 49 33 c74 50 214 194 214 219 0
3 -17 -1 -37 -10 -64 -27 -134 -43 -222 -50 -59 -4 -83 -3 -80 5 6 16 215 210
276 256 29 22 51 41 50 42 -3 4 -126 -12 -222 -27 -86 -14 -148 -29 -245 -62
-41 -14 -76 -24 -77 -23 -5 5 17 104 39 181 22 77 47 135 90 207 l27 48 -78
-39 c-105 -53 -204 -122 -273 -189 -32 -31 -61 -53 -64 -49 -4 4 -9 54 -12
112 -5 113 8 203 39 269 11 22 19 41 19 43 0 2 -19 -9 -42 -26 -62 -43 -149
-135 -206 -219 l-50 -73 -16 43 c-23 64 -53 175 -67 245 -6 35 -15 60 -19 58
-4 -3 -30 -51 -58 -107 -48 -100 -92 -242 -92 -301 l0 -28 -62 48 c-153 118
-231 216 -281 357 l-14 39 -28 -89 c-35 -111 -40 -262 -11 -357 10 -32 16 -61
13 -63 -3 -3 -33 2 -68 11 -136 35 -239 115 -303 234 l-34 64 -7 -58 c-15
-117 14 -253 81 -389 19 -38 32 -71 30 -74 -6 -5 -202 14 -281 28 -27 5 -70
11 -95 15 l-45 6 49 -50 c27 -27 76 -71 109 -98 32 -26 70 -57 84 -68 l25 -21
-48 -24 c-98 -49 -248 -155 -323 -228 l-23 -23 38 7 c84 17 314 5 314 -16 0
-31 -241 -109 -340 -111 l-55 0 90 -44 c50 -24 115 -52 145 -61 30 -9 72 -21
92 -28 l36 -11 -89 -93 c-49 -51 -89 -97 -89 -102 0 -5 20 -1 45 10 54 23 108
39 195 55 74 15 97 7 77 -25 -9 -15 -7 -27 11 -60 28 -53 29 -96 2 -110 -58
-31 -90 -198 -53 -281 22 -49 141 -225 170 -252 11 -9 37 -23 59 -30 38 -14
39 -16 56 -88 10 -41 19 -121 20 -179 l3 -105 -95 -13 c-181 -25 -300 -54
-300 -74 0 -6 4 -27 10 -47 62 -237 62 -245 15 -288 -24 -22 -35 -41 -35 -60
0 -25 -9 -33 -92 -76 -261 -133 -458 -236 -498 -259 -25 -14 -70 -39 -100 -55
-65 -36 -120 -66 -147 -84 -11 -7 -27 -9 -36 -6 -14 5 -111 144 -171 247 -60
101 -138 276 -176 392 -57 173 -56 172 -79 283 -143 713 36 1430 499 1990 67
81 216 226 308 300 100 80 217 165 228 165 3 0 24 13 47 28 74 51 247 135 387
190 123 48 325 95 520 121 114 15 498 13 622 -4z m-247 -178 c10 -56 85 -287
94 -287 4 0 15 17 25 37 32 66 104 167 157 218 44 43 51 46 45 25 -14 -59 -17
-183 -7 -284 6 -60 13 -111 16 -114 2 -2 17 11 32 29 93 112 277 259 323 259
6 0 0 -21 -14 -47 -29 -59 -61 -151 -75 -218 -12 -61 -24 -155 -19 -155 2 0
39 15 83 33 111 47 376 109 393 93 3 -3 -8 -16 -24 -28 -35 -27 -258 -239
-262 -250 -6 -14 200 -8 263 7 32 8 61 13 62 11 8 -7 -130 -127 -181 -157 -31
-19 -56 -36 -56 -39 0 -17 195 -89 243 -90 15 0 27 -3 27 -7 0 -20 -238 -153
-272 -153 -35 0 -16 -16 70 -57 77 -38 218 -145 167 -128 -66 23 -285 13 -285
-13 0 -4 23 -30 51 -57 28 -28 59 -62 69 -76 l19 -26 -52 8 c-87 14 -96 18
-103 45 -19 76 -134 217 -225 275 -46 29 -50 34 -34 44 67 40 155 98 153 101
-2 2 -48 -19 -103 -47 -56 -28 -106 -47 -115 -43 -160 66 -241 79 -490 78
-178 0 -236 -4 -335 -23 -233 -43 -324 -80 -418 -170 -61 -58 -139 -153 -150
-183 -4 -11 -17 -18 -31 -18 -28 0 -142 -25 -181 -40 -14 -5 -25 -8 -25 -6 0
6 67 74 122 123 25 23 43 44 40 47 -3 3 -22 6 -42 6 -48 0 -140 24 -220 57
l-64 27 93 23 c102 25 207 72 241 108 l22 23 -34 10 c-54 17 -214 33 -260 26
l-43 -7 30 25 c85 72 304 198 342 198 25 0 11 15 -44 50 -31 19 -90 63 -132
98 -83 70 -86 66 32 47 70 -11 302 -34 305 -30 2 2 -5 17 -17 34 -61 85 -123
259 -136 381 -6 55 -6 55 12 31 81 -106 154 -165 243 -195 51 -17 173 -47 177
-43 1 2 -9 43 -22 92 -34 123 -34 251 1 353 2 8 20 -17 39 -55 40 -75 97 -139
195 -216 36 -28 84 -69 108 -91 l42 -40 0 44 c0 52 20 153 45 225 25 72 67
155 76 150 4 -3 10 -24 14 -48z m31 -1622 c43 -46 138 -97 251 -137 85 -29
203 -31 281 -4 29 10 55 16 58 13 2 -2 -2 -44 -11 -93 -9 -49 -25 -141 -36
-204 -10 -63 -26 -149 -35 -190 l-16 -75 -136 -134 -135 -134 -136 8 c-75 4
-216 8 -313 10 l-178 3 -57 50 c-85 74 -198 193 -215 227 -13 26 -34 120 -68
315 -5 30 -16 90 -25 134 -8 43 -15 82 -15 86 0 4 25 -1 55 -11 72 -24 190
-34 235 -21 138 41 293 114 320 152 25 35 78 61 110 53 14 -3 43 -25 66 -48z
m-869 -57 c21 -25 49 -82 65 -132 11 -37 47 -240 55 -308 5 -46 4 -48 -19 -48
-14 0 -35 12 -49 28 -46 49 -128 168 -149 213 -22 50 -27 152 -8 196 16 39 48
73 68 73 9 0 26 -10 37 -22z m1617 -11 c27 -27 41 -112 30 -174 -16 -91 -159
-303 -204 -303 -15 0 -15 9 -3 91 36 247 70 362 115 393 29 21 35 20 62 -7z
m508 -339 c-15 -15 -16 -32 -1 -23 6 4 5 -3 -3 -14 -8 -13 -21 -20 -33 -19
-32 5 -28 32 8 49 41 21 43 21 29 7z m55 -34 c-3 -3 -12 -4 -19 -1 -8 3 -5 6
6 6 11 1 17 -2 13 -5z m-96 -342 c22 -18 22 -21 10 -88 -15 -82 -28 -197 -41
-354 -5 -63 -14 -155 -20 -205 -6 -49 -8 -125 -5 -167 l6 -78 -68 37 c-118 63
-144 82 -139 101 2 9 8 50 11 90 5 51 12 75 23 81 13 7 14 12 3 24 -10 13 -8
36 10 129 12 62 25 115 28 118 4 3 7 34 7 70 1 101 46 223 92 250 26 15 58 12
83 -8z m-1731 -149 c0 -8 -13 -13 -32 -13 -18 0 -50 -3 -70 -6 l-38 -7 0 94 1
94 69 -75 c38 -41 69 -81 70 -87z m980 108 c0 -15 -3 -56 -6 -89 l-7 -62 -56
6 c-88 9 -87 8 -34 71 98 116 103 120 103 74z m244 -652 c40 -32 35 -67 -26
-152 -62 -86 -117 -147 -135 -147 -7 0 -13 -7 -13 -15 0 -8 5 -15 10 -15 6 0
10 -20 10 -43 0 -43 21 -100 41 -113 6 -3 7 -24 4 -47 -8 -51 12 -102 59 -155
18 -20 36 -50 40 -66 4 -15 16 -40 26 -55 19 -24 19 -29 5 -75 -8 -27 -15 -81
-14 -120 l1 -71 13 70 c12 68 33 135 41 135 3 0 15 -7 28 -15 15 -10 34 -13
49 -9 25 6 87 57 87 72 0 4 4 13 9 21 7 11 14 10 37 -6 16 -11 38 -23 49 -27
18 -7 18 -5 -3 17 -30 32 -28 43 11 53 31 8 30 8 -17 12 -29 2 -60 11 -75 23
l-25 20 -24 -31 c-15 -19 -33 -30 -48 -30 -13 0 -24 -5 -24 -11 0 -8 14 -10
45 -6 35 5 45 3 45 -7 0 -17 -56 -66 -75 -66 -22 0 -81 57 -100 96 -16 34 -16
38 0 75 18 40 127 149 149 149 7 0 54 -7 104 -16 95 -16 141 -16 145 1 1 6
-14 11 -33 13 -48 4 -201 29 -221 37 -11 4 -42 -22 -103 -85 -97 -101 -100
-101 -137 -28 -13 25 -17 47 -13 61 7 24 86 128 148 195 53 57 81 56 275 -7
69 -23 98 -26 120 -12 12 8 8 11 -15 16 -16 3 -54 13 -84 22 -30 8 -91 24
-135 36 -44 11 -84 27 -88 34 -6 9 -14 7 -35 -10 -41 -34 -90 -87 -135 -145
-22 -29 -45 -51 -51 -49 -16 5 -56 79 -56 104 0 12 19 48 43 81 23 33 58 81
77 108 60 83 95 114 129 114 17 0 69 -20 118 -46 49 -26 130 -69 182 -95 51
-27 104 -61 117 -76 24 -29 32 -77 14 -88 -5 -3 -10 -19 -10 -35 0 -16 5 -32
10 -35 13 -8 13 -66 -1 -102 -8 -20 -7 -38 1 -64 13 -37 11 -44 -31 -199 -11
-41 -39 -162 -39 -171 0 -22 -400 -239 -440 -239 -20 0 -77 78 -87 120 -7 27
-62 135 -109 215 -17 28 -36 72 -44 99 -17 61 -17 202 0 280 9 47 9 75 0 137
-14 89 -12 101 31 196 65 144 80 170 101 181 33 15 42 14 72 -9z"/>
<path d="M1155 4152 c4 -13 22 -57 41 -98 19 -41 34 -80 34 -85 0 -6 -42 -75
-92 -154 -51 -80 -127 -199 -168 -265 -150 -240 -171 -272 -177 -267 -3 3 0
21 5 39 47 152 64 210 60 214 -5 5 -168 -328 -168 -342 0 -5 37 -31 81 -57 67
-41 245 -163 272 -187 17 -15 -30 -160 -67 -208 -20 -25 -35 -49 -34 -53 13
-33 304 -229 428 -288 l45 -21 -29 22 c-129 102 -248 199 -284 233 -24 22 -50
44 -58 48 -20 11 -13 42 37 165 22 53 38 101 37 107 -2 6 -58 62 -125 124
-158 145 -157 133 -36 349 48 87 114 202 146 257 33 55 68 114 77 130 10 17
37 61 60 99 48 79 50 69 -37 186 -30 41 -52 65 -48 52z"/>
<path d="M416 2435 c56 -82 61 -88 263 -347 84 -109 157 -198 161 -198 4 0 49
23 101 51 93 51 124 68 248 137 l64 35 -7 -27 c-3 -15 -19 -52 -33 -84 -15
-31 -30 -64 -34 -73 -5 -12 9 -35 51 -82 67 -76 67 -78 7 -177 l-39 -65 66 65
c36 35 69 72 71 81 4 11 -15 46 -50 95 -30 42 -55 81 -55 85 0 5 33 72 74 150
41 77 69 139 63 136 -167 -66 -231 -93 -275 -113 -29 -13 -55 -24 -58 -24 -2
0 -38 -16 -78 -35 -41 -19 -76 -35 -79 -35 -4 0 -112 104 -356 344 -149 147
-152 149 -105 81z"/>
<path d="M2261 4123 c-2 -65 74 -312 101 -329 6 -4 8 -1 5 7 -12 29 -77 236
-91 289 -8 30 -15 45 -15 33z"/>
<path d="M2746 4095 c-9 -26 -7 -32 5 -12 6 10 9 21 6 23 -2 3 -7 -2 -11 -11z"/>
<path d="M2701 3964 c-16 -55 -32 -126 -35 -159 -4 -46 4 -23 34 95 21 85 37
156 35 158 -2 2 -17 -40 -34 -94z"/>
<path d="M2945 3894 c-45 -46 -130 -162 -123 -169 2 -2 22 19 45 48 104 129
134 167 129 167 -2 0 -25 -21 -51 -46z"/>
<path d="M1965 3851 c33 -34 94 -85 135 -112 80 -54 67 -40 -74 81 -112 97
-137 109 -61 31z"/>
<path d="M2370 3771 c0 -6 4 -13 10 -16 6 -3 7 1 4 9 -7 18 -14 21 -14 7z"/>
<path d="M2427 2745 c-5 -11 2 -14 28 -13 28 1 33 4 24 15 -15 17 -45 17 -52
-2z"/>
<path d="M2580 2745 c-11 -13 -7 -15 26 -15 35 0 37 1 18 15 -24 18 -29 18
-44 0z"/>
<path d="M2114 2558 c-10 -16 98 -115 164 -151 61 -33 177 -57 275 -57 137 1
211 30 310 120 44 41 59 61 54 73 -7 19 -38 23 -35 5 4 -16 -67 -16 -177 1
-145 22 -199 23 -325 6 -69 -10 -142 -20 -163 -22 -37 -5 -72 11 -61 28 3 5
-4 9 -15 9 -11 0 -23 -5 -27 -12z m649 -39 c31 -7 57 -17 57 -23 0 -17 -32
-46 -51 -46 -12 0 -16 -5 -13 -14 4 -10 -7 -21 -33 -33 -58 -26 -321 -25 -377
3 -45 21 -56 40 -29 47 10 3 2 5 -17 6 -36 1 -60 16 -60 36 0 7 32 17 73 24
39 7 79 14 87 16 33 8 308 -5 363 -16z"/>
<path d="M1681 2909 c-14 -40 -14 -69 -1 -69 6 0 10 6 10 13 0 6 6 19 13 28
11 15 15 15 32 3 16 -12 17 -17 7 -40 -11 -23 -11 -25 8 -19 17 5 20 2 20 -26
0 -17 -5 -48 -11 -69 -10 -33 -9 -41 12 -73 23 -35 47 -53 57 -43 2 3 -3 27
-13 53 -9 26 -19 71 -21 98 -5 60 -19 99 -51 143 -30 40 -48 41 -62 1z"/>
<path d="M3304 2898 c-43 -48 -56 -79 -50 -113 5 -24 1 -45 -13 -70 -36 -69 2
-91 44 -26 25 37 26 40 11 76 -18 42 -13 76 14 100 17 15 19 15 33 -5 19 -28
27 -14 15 28 -10 38 -27 41 -54 10z"/>
</g>
</svg>
